<?xml version="1.0" encoding="utf-8"?>
<!-- Generator: Adobe Illustrator 16.0.4, SVG Export Plug-In . SVG Version: 6.00 Build 0)  -->
<!DOCTYPE svg PUBLIC "-//W3C//DTD SVG 1.1//EN" "http://www.w3.org/Graphics/SVG/1.1/DTD/svg11.dtd">
<svg version="1.1" id="Layer_1" xmlns="http://www.w3.org/2000/svg" xmlns:xlink="http://www.w3.org/1999/xlink" x="0px" y="0px"
	 width="8px" height="20px" viewBox="0 0 8 20" enable-background="new 0 0 8 20" xml:space="preserve">
<g>
	<path fill="#FFFFFF" d="M7.09,11c-0.232,0-0.463,0.09-0.641,0.271l-2.457,2.497l-2.44-2.481c-0.355-0.36-0.931-0.36-1.286,0
		c-0.355,0.361-0.355,0.947,0,1.308l3.083,3.136c0.355,0.36,0.93,0.36,1.285,0l3.098-3.151c0.357-0.36,0.357-0.946,0-1.308
		C7.557,11.09,7.324,11,7.09,11z"/>
</g>
<g>
	<path fill="#FFFFFF" d="M4,0C3.448,0,3,0.387,3,0.865v12.27C3,13.612,3.448,14,4,14c0.553,0,1-0.388,1-0.865V0.865
		C5,0.387,4.553,0,4,0z"/>
</g>
<g>
	<path fill="#FFFFFF" d="M7.099,18H0.901C0.404,18,0,18.447,0,19s0.404,1,0.901,1h6.197C7.598,20,8,19.553,8,19S7.598,18,7.099,18z"
		/>
</g>
</svg>
