<?xml version="1.0" encoding="utf-8"?>
<!-- Generator: Adobe Illustrator 16.0.4, SVG Export Plug-In . SVG Version: 6.00 Build 0)  -->
<!DOCTYPE svg PUBLIC "-//W3C//DTD SVG 1.1//EN" "http://www.w3.org/Graphics/SVG/1.1/DTD/svg11.dtd">
<svg version="1.1" id="Layer_1" xmlns="http://www.w3.org/2000/svg" xmlns:xlink="http://www.w3.org/1999/xlink" x="0px" y="0px"
	 width="8px" height="20px" viewBox="0 0 8 20" enable-background="new 0 0 8 20" xml:space="preserve">
<g>
	<path fill="#FFFFFF" d="M7.09,9C6.857,9,6.627,8.91,6.449,8.729L3.992,6.232l-2.44,2.481c-0.355,0.36-0.931,0.36-1.286,0
		c-0.355-0.361-0.355-0.947,0-1.308L3.35,4.271c0.355-0.36,0.93-0.36,1.285,0l3.098,3.151c0.357,0.36,0.357,0.946,0,1.308
		C7.557,8.91,7.324,9,7.09,9z"/>
</g>
<g>
	<path fill="#FFFFFF" d="M4,20c-0.552,0-1-0.387-1-0.865V6.865C3,6.388,3.448,6,4,6c0.553,0,1,0.388,1,0.865v12.27
		C5,19.613,4.553,20,4,20z"/>
</g>
<g>
	<path fill="#FFFFFF" d="M7.099,2H0.901C0.404,2,0,1.552,0,1s0.404-1,0.901-1h6.197C7.598,0,8,0.448,8,1S7.598,2,7.099,2z"/>
</g>
</svg>
